<?xml version="1.0" encoding="UTF-8" standalone="no"?>
<!-- Created with Inkscape (http://www.inkscape.org/) -->

<svg
   xmlns:dc="http://purl.org/dc/elements/1.1/"
   xmlns:cc="http://creativecommons.org/ns#"
   xmlns:rdf="http://www.w3.org/1999/02/22-rdf-syntax-ns#"
   xmlns:svg="http://www.w3.org/2000/svg"
   xmlns="http://www.w3.org/2000/svg"
   xmlns:sodipodi="http://sodipodi.sourceforge.net/DTD/sodipodi-0.dtd"
   xmlns:inkscape="http://www.inkscape.org/namespaces/inkscape"
   width="800"
   height="1080"
   id="svg2985"
   version="1.1"
   inkscape:version="0.48.4 r9939"
   sodipodi:docname="Koverse-ThirdParty-Authentication.svg">
  <defs
     id="defs2987" />
  <sodipodi:namedview
     id="base"
     pagecolor="#ffffff"
     bordercolor="#666666"
     borderopacity="1.0"
     inkscape:pageopacity="0.0"
     inkscape:pageshadow="2"
     inkscape:zoom="0.6"
     inkscape:cx="142.5"
     inkscape:cy="570.4386"
     inkscape:current-layer="layer1"
     inkscape:document-units="px"
     showgrid="false"
     inkscape:window-width="1920"
     inkscape:window-height="1137"
     inkscape:window-x="-8"
     inkscape:window-y="-8"
     inkscape:window-maximized="1" />
  <metadata
     id="metadata2990">
    <rdf:RDF>
      <cc:Work
         rdf:about="">
        <dc:format>image/svg+xml</dc:format>
        <dc:type
           rdf:resource="http://purl.org/dc/dcmitype/StillImage" />
        <dc:title />
      </cc:Work>
    </rdf:RDF>
  </metadata>
  <g
     id="layer1"
     inkscape:label="Layer 1"
     inkscape:groupmode="layer"
     transform="translate(0,480)">
    <g
       transform="matrix(3.826389,0,0,3.826389,32.000004,-457.65277)"
       id="user_x5F_close">
      <g
         id="g9">
        <path
           inkscape:connector-curvature="0"
           d="m 0,32 h 32 v -8 c 0,0 0,-4 -4,-4 -2,0 -20,0 -24,0 -4,0 -4,4 -4,4 v 8 z"
           id="path11" />
      </g>
      <g
         id="g13">
        <circle
           d="m 24,10 c 0,4.418278 -3.581722,8 -8,8 -4.418278,0 -8,-3.581722 -8,-8 0,-4.418278 3.581722,-8 8,-8 4.418278,0 8,3.581722 8,8 z"
           sodipodi:ry="8"
           sodipodi:rx="8"
           sodipodi:cy="10"
           sodipodi:cx="16"
           cx="16"
           cy="10"
           r="8"
           id="circle15" />
      </g>
    </g>
    <g
       id="background"
       transform="matrix(4.28125,0,0,4.28125,62.666668,-122.66667)">
      <rect
         style="fill:none"
         y="0"
         x="0"
         width="32"
         height="32"
         id="rect6" />
    </g>
    <g
       id="user_x5F_close_x5F_security"
       transform="matrix(4.1076389,0,0,4.1076389,419.33333,378.88889)">
      <path
         inkscape:connector-curvature="0"
         d="m 32,23 c -0.002,-4.973 -4.029,-9 -9,-9 -0.025,0 -0.049,0.003 -0.074,0.004 C 23.608,12.826 24,11.459 24,10 24,5.582 20.418,2 16,2 11.582,2 8,5.582 8,10 c 0,4.26 3.332,7.732 7.531,7.977 -0.419,0.622 -0.753,1.304 -1.008,2.023 H 4 c -4,0 -4,4 -4,4 v 8 h 32 v -8 c 0,0 0,-0.793 0,-1 z m -2.117,0 C 29.874,26.799 26.799,29.874 23,29.883 19.199,29.874 16.124,26.799 16.116,23 16.124,19.199 19.199,16.124 23,16.116 c 3.799,0.008 6.874,3.083 6.883,6.884 z"
         id="path9-1" />
      <path
         inkscape:connector-curvature="0"
         d="m 26.144,22 c 0.008,-0.131 0.014,-0.267 0.014,-0.409 -0.006,-0.678 -0.088,-1.492 -0.556,-2.259 -0.457,-0.779 -1.438,-1.36 -2.602,-1.333 -1.165,-0.027 -2.148,0.554 -2.605,1.333 -0.47,0.767 -0.552,1.581 -0.556,2.259 0,0.143 0.006,0.278 0.014,0.409 H 19 v 5 h 8 v -5 h -0.856 z m -4.307,-0.409 c -0.004,-0.478 0.093,-0.958 0.254,-1.198 0.173,-0.227 0.27,-0.366 0.909,-0.394 0.637,0.027 0.73,0.165 0.904,0.394 0.162,0.24 0.259,0.723 0.253,1.198 0,0.145 -0.008,0.28 -0.019,0.409 h -2.282 c -0.01,-0.131 -0.019,-0.268 -0.019,-0.409 z"
         id="path11-7" />
    </g>
    <g
       id="background-4"
       transform="matrix(2.875,0,0,2.875,326,-379.33334)">
      <rect
         style="fill:none"
         y="0"
         x="0"
         width="32"
         height="32"
         id="rect6-0" />
    </g>
    <g
       id="background-9"
       transform="matrix(3.4479166,0,0,3.4479166,519.33333,363.99999)">
      <rect
         style="fill:none"
         y="0"
         x="0"
         width="32"
         height="32"
         id="rect6-4" />
    </g>
    <g
       id="database_x5F_security"
       transform="matrix(3.1874999,0,0,3.1874999,628.18741,410.99998)">
      <path
         inkscape:connector-curvature="0"
         d="M 29.998,17.348 V 4.999 C 30.025,4.727 29.793,3.284 27.896,2.148 26.012,0.997 22.598,0.004 16.002,0 9.403,0.004 5.989,0.997 4.103,2.148 2.208,3.283 1.975,4.726 2.002,4.999 v 22.74 C 1.967,28.092 2.307,29.367 4.178,30.264 6.045,31.19 9.417,31.994 16,32 17.978,31.998 19.66,31.924 21.104,31.796 21.716,31.927 22.349,32 22.999,32 27.97,31.998 31.998,27.97 32,22.999 31.999,20.856 31.248,18.893 29.998,17.348 z M 16,30 C 9.586,30.007 6.459,29.179 5.076,28.476 4.382,28.126 4.089,27.828 4.001,27.696 3.983,27.669 4.01,27.649 4.003,27.634 L 4,7.783 C 4.037,7.806 4.065,7.83 4.103,7.852 5.989,9.001 9.403,9.993 16.002,10 22.598,9.994 26.012,9.001 27.897,7.853 27.934,7.83 27.963,7.805 28,7.783 v 7.735 C 26.569,14.561 24.85,14 22.999,14 c -4.972,0.002 -8.998,4.028 -9,9 C 14,25.822 15.3,28.338 17.332,29.988 16.902,29.995 16.465,30.001 16,30 z m 6.999,-0.002 c -3.865,-0.006 -6.992,-3.133 -7,-6.999 0.008,-3.865 3.135,-6.992 7,-7 3.866,0.008 6.993,3.135 6.999,7 -0.006,3.866 -3.133,6.993 -6.999,6.999 z"
         id="path9-8" />
      <path
         inkscape:connector-curvature="0"
         d="m 26.144,22 c 0.008,-0.131 0.014,-0.267 0.014,-0.409 -0.006,-0.678 -0.088,-1.492 -0.556,-2.259 -0.457,-0.779 -1.438,-1.36 -2.602,-1.333 -1.165,-0.027 -2.148,0.554 -2.605,1.333 -0.47,0.767 -0.552,1.581 -0.556,2.259 0,0.143 0.006,0.278 0.014,0.409 H 19 v 5 h 8 v -5 h -0.856 z m -4.307,-0.409 c -0.004,-0.478 0.093,-0.958 0.254,-1.198 0.173,-0.227 0.27,-0.366 0.909,-0.394 0.637,0.027 0.73,0.165 0.904,0.394 0.162,0.24 0.259,0.723 0.253,1.198 0,0.145 -0.008,0.28 -0.019,0.409 h -2.282 c -0.01,-0.131 -0.019,-0.268 -0.019,-0.409 z"
         id="path11-8" />
    </g>
    <g
       id="background-92"
       transform="matrix(3.6041667,0,0,3.6041667,97.66663,-274.33334)">
      <rect
         style="fill:none"
         y="0"
         x="0"
         width="32"
         height="32"
         id="rect6-7" />
    </g>
    <g
       id="background-3"
       transform="matrix(4.6458333,0,0,4.6458333,402.6667,-132.66666)">
      <rect
         style="fill:none"
         y="0"
         x="0"
         width="32"
         height="32"
         id="rect6-3" />
    </g>
    <g
       id="size_x5F_height"
       transform="matrix(2.4583333,0,0,2.4583333,637.6667,301.66668)">
      <path
         inkscape:connector-curvature="0"
         d="M 18,8 V 6 h 4 L 16,0 10,6 h 4 V 8 H 8 v 16 h 6 v 2 h -4 l 6,6 6,-6 h -4 v -2 h 6 V 8 h -6 z m 4,14 H 10 V 10 h 12 v 12 z"
         id="path9-4" />
    </g>
    <text
       xml:space="preserve"
       style="font-size:31.0547123px;font-style:normal;font-weight:normal;line-height:125%;letter-spacing:0px;word-spacing:0px;fill:#000000;fill-opacity:1;stroke:none;font-family:Sans"
       x="191.60901"
       y="-417.13513"
       id="text3141"
       sodipodi:linespacing="125%"><tspan
         sodipodi:role="line"
         x="191.60901"
         y="-417.13513"
         id="tspan3143"><tspan
           x="191.60901"
           y="-417.13513"
           id="tspan3145">1. Unauthenticated user provides 3rd </tspan></tspan><tspan
         sodipodi:role="line"
         x="191.60901"
         y="-378.31674"
         id="tspan3147"><tspan
           x="191.60901"
           y="-378.31674"
           id="tspan3149">party credentials to Thrift client (web app).</tspan><tspan
           dx="0"
           x="770.12433"
           y="-378.31674"
           id="tspan3151" /></tspan></text>
    <text
       xml:space="preserve"
       style="font-size:31.0547123px;font-style:normal;font-weight:normal;line-height:125%;letter-spacing:0px;word-spacing:0px;fill:#000000;fill-opacity:1;stroke:none;font-family:Sans"
       x="25.295721"
       y="-234.668"
       id="text3125"
       sodipodi:linespacing="125%"><tspan
         sodipodi:role="line"
         x="25.295721"
         y="-234.668"
         id="tspan3127"><tspan
           x="25.295721"
           y="-234.668"
           id="tspan3129">2. Web app calls 3rd </tspan></tspan><tspan
         sodipodi:role="line"
         x="25.295721"
         y="-195.84961"
         id="tspan3131"><tspan
           x="25.295721"
           y="-195.84961"
           id="tspan3133">party authenticator  to </tspan></tspan><tspan
         sodipodi:role="line"
         x="25.295721"
         y="-157.0312"
         id="tspan3135"><tspan
           x="25.295721"
           y="-157.0312"
           id="tspan3137">acquire UserID</tspan><tspan
           dx="0"
           x="232.54953"
           y="-157.0312"
           id="tspan3139" /></tspan></text>
    <text
       xml:space="preserve"
       style="font-size:31.0547123px;font-style:normal;font-weight:normal;line-height:125%;letter-spacing:0px;word-spacing:0px;fill:#000000;fill-opacity:1;stroke:none;font-family:Sans"
       x="31.396072"
       y="369.56912"
       id="text3071"
       sodipodi:linespacing="125%"><tspan
         sodipodi:role="line"
         x="31.396072"
         y="369.56912"
         id="tspan3073"><tspan
           x="31.396072"
           y="369.56912"
           id="tspan3075">5. Koverse Server stores </tspan></tspan><tspan
         sodipodi:role="line"
         x="31.396072"
         y="408.38751"
         id="tspan3077"><tspan
           x="31.396072"
           y="408.38751"
           id="tspan3079">the third-party UserID and </tspan></tspan><tspan
         sodipodi:role="line"
         x="31.396072"
         y="447.2059"
         id="tspan3081"><tspan
           x="31.396072"
           y="447.2059"
           id="tspan3083">associates it with a Koverse </tspan></tspan><tspan
         sodipodi:role="line"
         x="31.396072"
         y="486.02429"
         id="tspan3085"><tspan
           x="31.396072"
           y="486.02429"
           id="tspan3087">user ID to be used </tspan></tspan><tspan
         sodipodi:role="line"
         x="31.396072"
         y="524.84271"
         id="tspan3089"><tspan
           x="31.396072"
           y="524.84271"
           id="tspan3091">internally, and returns the </tspan></tspan><tspan
         sodipodi:role="line"
         x="31.396072"
         y="563.66107"
         id="tspan3093"><tspan
           x="31.396072"
           y="563.66107"
           id="tspan3095">authenticated user session.</tspan></tspan></text>
    <g
       transform="matrix(2.3888889,0,0,2.3888889,178.77778,-364.88889)"
       id="arrow_x5F_full_x5F_lowerright">
      <polygon
         points="28,8 22,14 12,4 4,12 14,22 8,28 28,28 "
         id="polygon9" />
    </g>
    <g
       id="background-0"
       transform="matrix(2.3020833,0,0,2.3020833,189.3333,-129.33333)">
      <rect
         style="fill:none"
         y="0"
         x="0"
         width="32"
         height="32"
         id="rect6-2" />
    </g>
    <text
       xml:space="preserve"
       style="font-size:31.0547123px;font-style:normal;font-weight:normal;line-height:125%;letter-spacing:0px;word-spacing:0px;fill:#000000;fill-opacity:1;stroke:none;font-family:Sans"
       x="24.719511"
       y="-7.1151028"
       id="text3111"
       sodipodi:linespacing="125%"><tspan
         sodipodi:role="line"
         x="24.719511"
         y="-7.1151028"
         id="tspan3113"><tspan
           x="24.719511"
           y="-7.1151028"
           id="tspan3115">3. Web app sends UserID, Authenticator </tspan></tspan><tspan
         sodipodi:role="line"
         x="24.719511"
         y="31.703289"
         id="tspan3117"><tspan
           x="24.719511"
           y="31.703289"
           id="tspan3119">Type and password to Koverse Server to </tspan></tspan><tspan
         sodipodi:role="line"
         x="24.719511"
         y="70.521683"
         id="tspan3121"><tspan
           x="24.719511"
           y="70.521683"
           id="tspan3123">authenticate credentials.</tspan></tspan></text>
    <g
       id="backbord"
       transform="matrix(4.28125,0,0,4.28125,309.33337,-114)">
      <rect
         style="fill:none"
         y="0"
         x="0"
         width="32"
         height="32"
         id="rect6-9" />
    </g>
    <g
       transform="matrix(4.2142858,0,0,4.2142858,597.90476,-47.09524)"
       id="server-7">
      <path
         inkscape:connector-curvature="0"
         d="M 30,10 V 2 H 2 v 8 h 2 v 2 H 2 v 8 h 2 v 2 H 2 v 8 h 28 v -8 h -2 v -2 h 2 v -8 h -2 v -2 h 2 z M 4,6 H 8 V 8 H 4 V 6 z m 0,10 h 4 v 2 H 4 V 16 z M 8,28 H 4 v -2 h 4 v 2 z M 26,22 H 6 v -2 h 20 v 2 z M 26,12 H 6 v -2 h 20 v 2 z"
         id="path9-88" />
    </g>
    <g
       transform="matrix(2.3888889,0,0,2.3888889,451.44445,-137.55556)"
       id="arrow_x5F_full_x5F_lowerright-2">
      <polygon
         points="12,4 4,12 14,22 8,28 28,28 28,8 22,14 "
         id="polygon9-91" />
    </g>
    <text
       xml:space="preserve"
       style="font-size:31.0547123px;font-style:normal;font-weight:normal;line-height:125%;letter-spacing:0px;word-spacing:0px;fill:#000000;fill-opacity:1;stroke:none;font-family:Sans"
       x="24.719511"
       y="171.89479"
       id="text3097"
       sodipodi:linespacing="125%"><tspan
         sodipodi:role="line"
         x="24.719511"
         y="171.89479"
         id="tspan3099"><tspan
           x="24.719511"
           y="171.89479"
           id="tspan3101">4. Koverse Server evaluates the 3rd </tspan></tspan><tspan
         sodipodi:role="line"
         x="24.719511"
         y="210.7132"
         id="tspan3103"><tspan
           x="24.719511"
           y="210.7132"
           id="tspan3105">party service response and accepts the </tspan></tspan><tspan
         sodipodi:role="line"
         x="24.719511"
         y="249.53159"
         id="tspan3107"><tspan
           x="24.719511"
           y="249.53159"
           id="tspan3109">delegated authority if passwords match.</tspan></tspan></text>
    <flowRoot
       xml:space="preserve"
       id="flowRoot3789"
       style="font-size:40px;font-style:normal;font-weight:normal;line-height:125%;letter-spacing:0px;word-spacing:0px;fill:#000000;fill-opacity:1;stroke:none;font-family:Sans"
       transform="translate(0,-600)"><flowRegion
         id="flowRegion3791"><rect
           id="rect3793"
           width="155"
           height="125"
           x="41.666668"
           y="1040" /></flowRegion><flowPara
         id="flowPara3795" /></flowRoot>    <g
       id="arrow_x5F_full_x5F_lowerleft"
       transform="matrix(2.3020833,0,0,2.3020833,526.83333,299.16666)">
      <polygon
         points="10,14 20,4 28,12 18,22 24,28 4,28 4,8 "
         id="polygon9-4" />
    </g>
    <g
       transform="matrix(4.2222222,0,0,4.2222222,598.55555,134.22222)"
       id="server_x5F_accept">
      <path
         inkscape:connector-curvature="0"
         d="M 30,17.349 V 12 h -2 v -2 h 2 V 2 H 2 v 8 h 2 v 2 H 2 v 8 h 2 v 2 H 2 v 8 h 15.349 c 1.545,1.248 3.51,1.999 5.651,2 4.971,-0.002 8.998,-4.029 9,-9 -0.001,-2.142 -0.752,-4.106 -2,-5.651 z M 14.059,22 H 6 v -2 h 8.522 c -0.225,0.638 -0.387,1.306 -0.463,2 z M 26,12 H 6 v -2 h 20 v 2 z M 4,6 H 8 V 8 H 4 V 6 z m 0,10 h 4 v 2 H 4 V 16 z M 8,28 H 4 v -2 h 4 v 2 z m 15,1.883 C 19.199,29.874 16.124,26.799 16.115,23 16.124,19.199 19.199,16.124 23,16.115 26.799,16.124 29.874,19.199 29.883,23 29.874,26.799 26.799,29.874 23,29.883 z"
         id="path9" />
      <polygon
         points="22,23 26,19 28,21 22,27 18,23 20,21 "
         id="polygon11" />
    </g>
    <g
       id="group_x5F_full_x5F_security"
       transform="matrix(3.2256593,0,0,3.2256593,644.77788,-248.55547)">
      <path
         inkscape:connector-curvature="0"
         d="m 22.38,7.519 c 0.065,0.035 0.134,0.068 0.194,0.105 C 23,7.856 23.48,8 24,8 25.657,8 27,6.657 27,5 27,3.343 25.657,2 24,2 c -1.657,0 -3,1.343 -3,3 0,1.059 0.552,1.985 1.38,2.519 z M 8,20 C 8,18 8,10 8,10 8,10 8.005,9.55 8.239,9 6.16,9 4,9 4,9 4,9 2,9 2,11 v 7 c 0,2 2,2 2,2 v 10 h 6 v -8 c 0,0 -2,0 -2,-2 z M 16,8 c 1.657,0 3,-1.343 3,-3 0,-1.657 -1.343,-3 -3,-3 -1.657,0 -3,1.343 -3,3 0,1.657 1.343,3 3,3 z M 8,8 C 8.52,8 9.001,7.856 9.427,7.624 9.486,7.588 9.552,7.556 9.615,7.521 10.446,6.988 11,6.061 11,5 11,3.343 9.657,2 8,2 6.343,2 5,3.343 5,5 5,6.657 6.343,8 8,8 z m 22,9.35 C 30,15.089 30,11 30,11 30,11 30,9 28,9 H 23.762 C 23.995,9.55 24,10 24,10 c 0,0 0,1.888 0,4.059 C 23.671,14.022 23.338,14 23,14 22.662,14 22.329,14.022 22,14.059 22,12.427 22,11 22,11 c 0,0 0,-2 -2,-2 -0.5,0 -8,0 -8,0 0,0 -2,0 -2,2 v 7 c 0,2 2,2 2,2 v 10 h 5.35 c 1.545,1.248 3.509,1.999 5.65,1.999 4.971,0 8.999,-4.028 8.999,-8.999 0,-2.142 -0.751,-4.105 -1.999,-5.65 z M 23,29.999 C 19.135,29.991 16.006,26.864 16,23 c 0.006,-3.865 3.135,-6.994 7,-7 3.864,0.006 6.991,3.135 6.999,7 -0.008,3.864 -3.135,6.991 -6.999,6.999 z"
         id="path9-6" />
      <path
         inkscape:connector-curvature="0"
         d="m 26.144,22 c 0.008,-0.131 0.014,-0.267 0.014,-0.409 -0.006,-0.678 -0.088,-1.492 -0.556,-2.259 -0.457,-0.779 -1.438,-1.36 -2.602,-1.333 -1.165,-0.027 -2.148,0.554 -2.605,1.333 -0.47,0.767 -0.552,1.581 -0.556,2.259 0,0.143 0.006,0.278 0.014,0.409 H 19 v 5 h 8 v -5 h -0.856 z m -4.307,-0.409 c -0.004,-0.478 0.093,-0.958 0.254,-1.198 0.173,-0.227 0.27,-0.366 0.909,-0.394 0.637,0.027 0.73,0.165 0.904,0.394 0.162,0.24 0.259,0.723 0.253,1.198 0,0.145 -0.008,0.28 -0.019,0.409 h -2.282 c -0.01,-0.131 -0.019,-0.268 -0.019,-0.409 z"
         id="path11-3" />
    </g>
    <g
       id="server-8"
       transform="matrix(3.65625,0,0,3.65625,338.59863,-268.31764)">
      <path
         inkscape:connector-curvature="0"
         d="m 6,0 v 30 h 2 l 0,2 h 4 v -2 h 8 v 2 h 4 v -2 h 2 V 0 H 6 z m 6,6 H 8 V 4 h 4 v 2 z"
         id="path9-2" />
    </g>
    <text
       xml:space="preserve"
       style="font-size:31.0547123px;font-style:normal;font-weight:normal;line-height:125%;letter-spacing:0px;word-spacing:0px;fill:#000000;fill-opacity:1;stroke:none;font-family:Sans"
       x="335.20767"
       y="-287.7861"
       id="text3153"
       sodipodi:linespacing="125%"><tspan
         sodipodi:role="line"
         x="335.20767"
         y="-287.7861"
         id="tspan3155"><tspan
           x="335.20767"
           y="-287.7861"
           id="tspan3157">Web App</tspan></tspan></text>
    <text
       xml:space="preserve"
       style="font-size:31.0547123px;font-style:normal;font-weight:normal;line-height:125%;letter-spacing:0px;word-spacing:0px;fill:#000000;fill-opacity:1;stroke:none;font-family:Sans"
       x="541.20764"
       y="-287.7861"
       id="text3165"
       sodipodi:linespacing="125%"><tspan
         sodipodi:role="line"
         x="541.20764"
         y="-287.7861"
         id="tspan3167"><tspan
           x="541.20764"
           y="-287.7861"
           id="tspan3169">3rd Party Server</tspan></tspan></text>
    <g
       id="server-8-1"
       transform="matrix(3.65625,0,0,3.65625,544.59863,-268.31764)">
      <path
         inkscape:connector-curvature="0"
         d="m 6,0 v 30 h 2 l 0,2 h 4 v -2 h 8 v 2 h 4 v -2 h 2 V 0 H 6 z m 6,6 H 8 V 4 h 4 v 2 z"
         id="path9-2-5" />
    </g>
    <g
       id="size_x5F_width"
       transform="matrix(2.40625,0,0,2.40625,461.33332,-227.33332)">
      <path
         inkscape:connector-curvature="0"
         d="m 32,16.001 -6,-6 v 4 H 23.999 V 8 h -16 v 6.001 H 6 v -4 l -6,6 6,6 v -4 H 7.999 V 24 h 16 V 18.001 H 26 v 4 l 6,-6 z M 21.999,22 h -12 V 10 h 12 v 12 z"
         id="path9-14" />
    </g>
    <text
       xml:space="preserve"
       style="font-size:31.0547123px;font-style:normal;font-weight:normal;line-height:125%;letter-spacing:0px;word-spacing:0px;fill:#000000;fill-opacity:1;stroke:none;font-family:Sans"
       x="451.07724"
       y="-225.36258"
       id="text3159"
       sodipodi:linespacing="125%"><tspan
         sodipodi:role="line"
         x="451.07724"
         y="-225.36258"
         id="tspan3161"><tspan
           x="451.07724"
           y="-225.36258"
           id="tspan3163">UserID</tspan></tspan></text>
    <flowRoot
       xml:space="preserve"
       id="flowRoot3112"
       style="fill:black;stroke:none;stroke-opacity:1;stroke-width:1px;stroke-linejoin:miter;stroke-linecap:butt;fill-opacity:1;font-family:Sans;font-style:normal;font-weight:normal;font-size:40px;line-height:125%;letter-spacing:0px;word-spacing:0px"><flowRegion
         id="flowRegion3114"><rect
           id="rect3116"
           width="810"
           height="1081.6666"
           x="13.333333"
           y="18.333334" /></flowRegion><flowPara
         id="flowPara3118" /></flowRoot>  </g>
</svg>
