<?xml version="1.0" encoding="UTF-8"?> <!-- Generator: Adobe Illustrator 22.1.0, SVG Export Plug-In . SVG Version: 6.00 Build 0) --> <svg xmlns="http://www.w3.org/2000/svg" xmlns:xlink="http://www.w3.org/1999/xlink" id="Layer_1" x="0px" y="0px" viewBox="0 0 617 518" style="enable-background:new 0 0 617 518;" xml:space="preserve"> <style type="text/css"> .st0{opacity:0.5;} .st1{fill:#FFFFFF;} .st2{fill:none;stroke:#A9B8CE;} .st3{fill:none;stroke:#A9B8CE;stroke-linecap:round;stroke-linejoin:bevel;} .st4{opacity:0.1;fill:#A9B8CE;enable-background:new ;} .st5{opacity:0.9;} .st6{fill:#323E50;} .st7{fill:#FFFFFF;fill-opacity:0.2;} .st8{fill:#5D7B9D;} .st9{fill:#4C647F;} .st10{fill:none;stroke:#323E50;} .st11{fill:none;stroke:#323E50;stroke-linejoin:bevel;} .st12{fill:none;stroke:#009FC7;stroke-width:2;stroke-linecap:square;stroke-dasharray:1,5;} </style> <title>Graphic 2</title> <desc>Created with Sketch.</desc> <g id="Pages"> <g id="_x31_.Homepage-2" transform="translate(-180.000000, -2235.000000)"> <g id="Personas" transform="translate(-26.000000, 713.000000)"> <g id="How-it-works" transform="translate(26.000000, 1425.000000)"> <g id="Graphic-2" transform="translate(180.000000, 97.000000)"> <g id="Faded-cubes"> <g id="Cubes-_x2F_-Gray" transform="translate(503.000000, 387.000000)" class="st0"> <g id="Polygon-3"> <g> <polygon id="path-1" class="st1" points="57,0 113.4,32.8 113.4,98.2 57,131 0.6,98.2 0.6,32.8 "></polygon> </g> <path class="st2" d="M57,0.6L1.1,33v65L57,130.4L112.9,98V33L57,0.6z"></path> </g> <path id="Line" class="st3" d="M1.2,33.2l56.2,31.9"></path> <path id="Line_1_" class="st3" d="M112.8,33.2L57.4,65.1"></path> <path id="Line_2_" class="st3" d="M57.4,129V65.1"></path> <polygon id="Rectangle" class="st4" points="57.8,64.7 112.4,31.9 112.4,97.6 57.8,128.5 "></polygon> </g> <g id="Cubes-_x2F_-Gray_1_" transform="translate(167.000000, 387.000000)" class="st0"> <g id="Polygon-3_1_"> <g> <polygon id="path-2" class="st1" points="57,0 113.4,32.8 113.4,98.2 57,131 0.6,98.2 0.6,32.8 "></polygon> </g> <path class="st2" d="M57,0.6L1.1,33v65L57,130.4L112.9,98V33L57,0.6z"></path> </g> <path id="Line_3_" class="st3" d="M1.2,33.2l56.2,31.9"></path> <path id="Line_4_" class="st3" d="M112.8,33.2L57.4,65.1"></path> <path id="Line_5_" class="st3" d="M57.4,129V65.1"></path> <polygon id="Rectangle_1_" class="st4" points="57.8,64.7 112.4,31.9 112.4,97.6 57.8,128.5 "></polygon> </g> <g id="Cubes-_x2F_-Gray_2_" transform="translate(55.000000, 387.000000)" class="st0"> <g id="Polygon-3_2_"> <g> <polygon id="path-3" class="st1" points="57,0 113.4,32.8 113.4,98.2 57,131 0.6,98.2 0.6,32.8 "></polygon> </g> <path class="st2" d="M57,0.6L1.1,33v65L57,130.4L112.9,98V33L57,0.6z"></path> </g> <path id="Line_6_" class="st3" d="M1.2,33.2l56.2,31.9"></path> <path id="Line_7_" class="st3" d="M112.8,33.2L57.4,65.1"></path> <path id="Line_8_" class="st3" d="M57.4,129V65.1"></path> <polygon id="Rectangle_2_" class="st4" points="57.8,64.7 112.4,31.9 112.4,97.6 57.8,128.5 "></polygon> </g> <g id="Cubes-_x2F_-Gray_3_" transform="translate(334.000000, 289.000000)" class="st0"> <g id="Polygon-3_3_"> <g> <polygon id="path-4" class="st1" points="57,0 113.4,32.8 113.4,98.2 57,131 0.6,98.2 0.6,32.8 "></polygon> </g> <path class="st2" d="M57,0.6L1.1,33v65L57,130.4L112.9,98V33L57,0.6z"></path> </g> <path id="Line_9_" class="st3" d="M1.2,33.2l56.2,31.9"></path> <path id="Line_10_" class="st3" d="M112.8,33.2L57.4,65.1"></path> <path id="Line_11_" class="st3" d="M57.4,129V65.1"></path> <polygon id="Rectangle_3_" class="st4" points="57.8,64.7 112.4,31.9 112.4,97.6 57.8,128.5 "></polygon> </g> <g id="Cubes-_x2F_-Gray_4_" transform="translate(223.000000, 289.000000)" class="st0"> <g id="Polygon-3_4_"> <g> <polygon id="path-5" class="st1" points="57,0 113.4,32.8 113.4,98.2 57,131 0.6,98.2 0.6,32.8 "></polygon> </g> <path class="st2" d="M57,0.6L1.1,33v65L57,130.4L112.9,98V33L57,0.6z"></path> </g> <path id="Line_12_" class="st3" d="M1.2,33.2l56.2,31.9"></path> <path id="Line_13_" class="st3" d="M112.8,33.2L57.4,65.1"></path> <path id="Line_14_" class="st3" d="M57.4,129V65.1"></path> <polygon id="Rectangle_4_" class="st4" points="57.8,64.7 112.4,31.9 112.4,97.6 57.8,128.5 "></polygon> </g> <g id="Cubes-_x2F_-Gray_5_" transform="translate(111.000000, 289.000000)" class="st0"> <g id="Polygon-3_5_"> <g> <polygon id="path-6" class="st1" points="57,0 113.4,32.8 113.4,98.2 57,131 0.6,98.2 0.6,32.8 "></polygon> </g> <path class="st2" d="M57,0.6L1.1,33v65L57,130.4L112.9,98V33L57,0.6z"></path> </g> <path id="Line_15_" class="st3" d="M1.2,33.2l56.2,31.9"></path> <path id="Line_16_" class="st3" d="M112.8,33.2L57.4,65.1"></path> <path id="Line_17_" class="st3" d="M57.4,129V65.1"></path> <polygon id="Rectangle_5_" class="st4" points="57.8,64.7 112.4,31.9 112.4,97.6 57.8,128.5 "></polygon> </g> <g id="Cubes-_x2F_-Gray_6_" transform="translate(502.595092, 192.000000)" class="st0"> <g id="Polygon-3_6_"> <g> <polygon id="path-7" class="st1" points="57,0 113.4,32.8 113.4,98.2 57,131 0.6,98.2 0.6,32.8 "></polygon> </g> <path class="st2" d="M57,0.6L1.1,33v65L57,130.4L112.9,98V33L57,0.6z"></path> </g> <path id="Line_18_" class="st3" d="M1.2,33.2l56.2,31.9"></path> <path id="Line_19_" class="st3" d="M112.8,33.2L57.4,65.1"></path> <path id="Line_20_" class="st3" d="M57.4,129V65.1"></path> <polygon id="Rectangle_6_" class="st4" points="57.8,64.7 112.4,31.9 112.4,97.6 57.8,128.5 "></polygon> </g> <g id="Cubes-_x2F_-Gray_7_" transform="translate(390.276074, 192.000000)" class="st0"> <g id="Polygon-3_7_"> <g> <polygon id="path-8" class="st1" points="57,0 113.4,32.8 113.4,98.2 57,131 0.6,98.2 0.6,32.8 "></polygon> </g> <path class="st2" d="M57,0.6L1.1,33v65L57,130.4L112.9,98V33L57,0.6z"></path> </g> <path id="Line_21_" class="st3" d="M1.2,33.2l56.2,31.9"></path> <path id="Line_22_" class="st3" d="M112.8,33.2L57.4,65.1"></path> <path id="Line_23_" class="st3" d="M57.4,129V65.1"></path> <polygon id="Rectangle_7_" class="st4" points="57.8,64.7 112.4,31.9 112.4,97.6 57.8,128.5 "></polygon> </g> <g id="Cubes-_x2F_-Gray_8_" transform="translate(333.957055, 96.000000)"> <g id="Polygon-3_8_"> <g> <polygon id="path-9" class="st1" points="57,0 113.4,32.5 113.4,97.5 57,130 0.6,97.5 0.6,32.5 "></polygon> </g> <path class="st2" d="M57,0.6L1.1,32.8v64.4L57,129.4l55.9-32.2V32.8L57,0.6z"></path> </g> <path id="Line_24_" class="st3" d="M1.2,32.9l56.2,31.7"></path> <path id="Line_25_" class="st3" d="M112.8,32.9L57.4,64.6"></path> <path id="Line_26_" class="st3" d="M57.4,128V64.6"></path> <polygon id="Rectangle_8_" class="st4" points="57.8,64.2 112.4,31.7 112.4,96.8 57.8,127.6 "></polygon> </g> <g id="Cubes-_x2F_-Gray_9_" transform="translate(222.638037, 97.000000)"> <g id="Polygon-3_9_"> <g> <polygon id="path-10" class="st1" points="57,0 113.4,32.5 113.4,97.5 57,130 0.6,97.5 0.6,32.5 "></polygon> </g> <path class="st2" d="M57,0.6L1.1,32.8v64.4L57,129.4l55.9-32.2V32.8L57,0.6z"></path> </g> <path id="Line_27_" class="st3" d="M1.2,32.9l56.2,31.7"></path> <path id="Line_28_" class="st3" d="M112.8,32.9L57.4,64.6"></path> <path id="Line_29_" class="st3" d="M57.4,128V64.6"></path> <polygon id="Rectangle_9_" class="st4" points="57.8,64.2 112.4,31.7 112.4,96.8 57.8,127.6 "></polygon> </g> <g id="Cubes-_x2F_-Gray_10_" transform="translate(0.000000, 96.000000)"> <g id="Polygon-3_10_"> <g> <polygon id="path-11" class="st1" points="57,0 113.4,32.5 113.4,97.5 57,130 0.6,97.5 0.6,32.5 "></polygon> </g> <path class="st2" d="M57,0.6L1.1,32.8v64.4L57,129.4l55.9-32.2V32.8L57,0.6z"></path> </g> <path id="Line_30_" class="st3" d="M1.2,32.9l56.2,31.7"></path> <path id="Line_31_" class="st3" d="M112.8,32.9L57.4,64.6"></path> <path id="Line_32_" class="st3" d="M57.4,128V64.6"></path> <polygon id="Rectangle_10_" class="st4" points="57.8,64.2 112.4,31.7 112.4,96.8 57.8,127.6 "></polygon> </g> <g id="Cubes-_x2F_-Gray_11_" transform="translate(277.957055, 0.000000)" class="st0"> <g id="Polygon-3_11_"> <g> <polygon id="path-12" class="st1" points="57,0 113.4,32.5 113.4,97.5 57,130 0.6,97.5 0.6,32.5 "></polygon> </g> <path class="st2" d="M57,0.6L1.1,32.8v64.4L57,129.4l55.9-32.2V32.8L57,0.6z"></path> </g> <path id="Line_33_" class="st3" d="M1.2,32.9l56.2,31.7"></path> <path id="Line_34_" class="st3" d="M112.8,32.9L57.4,64.6"></path> <path id="Line_35_" class="st3" d="M57.4,128V64.6"></path> <polygon id="Rectangle_11_" class="st4" points="57.8,64.2 112.4,31.7 112.4,96.8 57.8,127.6 "></polygon> </g> </g> <g id="cube---brand---blue-" transform="translate(278.000000, 191.000000)" class="st5"> <g id="Polygon-3_12_"> <g> <polygon id="path-13_2_" points="57.5,0.8 114.1,33.6 114.1,99.3 57.5,132.1 0.9,99.3 0.9,33.6 "></polygon> </g> <g> <polygon id="path-13_1_" class="st6" points="57.5,0.8 114.1,33.6 114.1,99.3 57.5,132.1 0.9,99.3 0.9,33.6 "></polygon> </g> </g> <polygon id="Rectangle-6" class="st7" points="57.1,0 113.1,32.8 58.7,65.1 1.1,32.8 "></polygon> <g id="logo-icon" transform="translate(67.000000, 61.000000)"> <path id="Combined-Shape" class="st1" d="M22.5,2C32.2-1.7,39,2.6,39,12.8s-6.8,21.1-16.5,26.8V32c4.8-3.4,8.1-9.4,8.1-15.2 c0-5.9-3.2-8.6-8.1-7.2V2z M8.4,27.7c0,5.8,3.3,8.5,8.1,7.2v7.6C6.8,46.2,0,41.9,0,31.8S6.8,10.7,16.5,5v7.6 C11.7,15.9,8.4,21.9,8.4,27.7z"></path> </g> </g> <g id="Highlighted-cubes" transform="translate(56.000000, 0.000000)"> <g id="Cubes-_x2F_-Blue" transform="translate(334.000000, 0.000000)"> <polygon id="Polygon-3_13_" class="st8" points="57.5,0 114.4,32.8 114.4,98.2 57.5,131 0.6,98.2 0.6,32.8 "></polygon> <polygon id="Rectangle_12_" class="st9" points="57.9,65.5 113.6,33.7 113.6,97.8 57.9,129.8 "></polygon> <path id="Polygon-3_14_" class="st10" d="M57.5,0.6L1.1,33v65l56.4,32.5L113.9,98V33L57.5,0.6z"></path> <path id="Line_36_" class="st11" d="M1.5,33.2l56.1,32.3"></path> <path id="Line_37_" class="st11" d="M113.8,33.2L57.5,65.5"></path> <path id="Line_38_" class="st11" d="M57.5,130.2V65.5"></path> </g> <g id="Cubes-_x2F_-Blue_1_" transform="translate(334.000000, 387.000000)"> <polygon id="Polygon-3_15_" class="st8" points="57.5,0 114.4,32.8 114.4,98.2 57.5,131 0.6,98.2 0.6,32.8 "></polygon> <polygon id="Rectangle_13_" class="st9" points="57.9,65.5 113.6,33.7 113.6,97.8 57.9,129.8 "></polygon> <path id="Polygon-3_16_" class="st10" d="M57.5,0.6L1.1,33v65l56.4,32.5L113.9,98V33L57.5,0.6z"></path> <path id="Line_39_" class="st11" d="M1.5,33.2l56.1,32.3"></path> <path id="Line_40_" class="st11" d="M113.8,33.2L57.5,65.5"></path> <path id="Line_41_" class="st11" d="M57.5,130.2V65.5"></path> </g> <g id="Cubes-_x2F_-Blue_2_" transform="translate(0.000000, 192.000000)"> <polygon id="Polygon-3_17_" class="st8" points="57.5,0 114.4,32.8 114.4,98.2 57.5,131 0.6,98.2 0.6,32.8 "></polygon> <polygon id="Rectangle_14_" class="st9" points="57.9,65.5 113.6,33.7 113.6,97.8 57.9,129.8 "></polygon> <path id="Polygon-3_18_" class="st10" d="M57.5,0.6L1.1,33v65l56.4,32.5L113.9,98V33L57.5,0.6z"></path> <path id="Line_42_" class="st11" d="M1.5,33.2l56.1,32.3"></path> <path id="Line_43_" class="st11" d="M113.8,33.2L57.5,65.5"></path> <path id="Line_44_" class="st11" d="M57.5,130.2V65.5"></path> </g> <g id="Cubes-_x2F_-Blue_3_" transform="translate(390.000000, 289.000000)"> <polygon id="Polygon-3_19_" class="st8" points="57.5,0 114.4,32.8 114.4,98.2 57.5,131 0.6,98.2 0.6,32.8 "></polygon> <polygon id="Rectangle_15_" class="st9" points="57.9,65.5 113.6,33.7 113.6,97.8 57.9,129.8 "></polygon> <path id="Polygon-3_20_" class="st10" d="M57.5,0.6L1.1,33v65l56.4,32.5L113.9,98V33L57.5,0.6z"></path> <path id="Line_45_" class="st11" d="M1.5,33.2l56.1,32.3"></path> <path id="Line_46_" class="st11" d="M113.8,33.2L57.5,65.5"></path> <path id="Line_47_" class="st11" d="M57.5,130.2V65.5"></path> </g> </g> <g id="Lines" transform="translate(145.000000, 114.000000)"> <path id="Line-4" class="st12" d="M277.8,286.7l-0.4-63.4"></path> <path id="Line-4_1_" class="st12" d="M301,244l-23.6,14.1"></path> <path id="Line-4_2_" class="st12" d="M54.9,289.2v-64.6"></path> <path id="Line-4_3_" class="st12" d="M104.3,286.2v-64.6"></path> <path id="Line-4_4_" class="st12" d="M104.4,288.2l-25,14.2l-25.9-14.2"></path> <path id="Line-4_5_" class="st12" d="M218.8,93V31.7"></path> <path id="Line-4_6_" class="st12" d="M272,0l-53.2,30.9"></path> <path id="Line-4_7_" class="st12" d="M0.4,191.5l54.5,32.3"></path> <path id="Line-4_8_" class="st12" d="M157.9,189.7l-51.6,31.9"></path> <path id="Line-4_9_" class="st12" d="M222.5,191.5l52.4,30.2"></path> </g> </g> </g> </g> </g> </g> </svg> 