<?xml version="1.0" encoding="UTF-8"?> <!-- Generator: Adobe Illustrator 22.1.0, SVG Export Plug-In . SVG Version: 6.00 Build 0) --> <svg xmlns="http://www.w3.org/2000/svg" xmlns:xlink="http://www.w3.org/1999/xlink" id="Layer_1" x="0px" y="0px" viewBox="0 0 793 607" style="enable-background:new 0 0 793 607;" xml:space="preserve"> <style type="text/css"> .st0{fill:none;stroke:#E4E3E3;stroke-linecap:round;} .st1{fill:#009FC7;} .st2{fill:#EFF8FA;} .st3{fill:#C5E9F1;} .st4{fill:none;stroke:#323E50;} .st5{fill:none;stroke:#323E50;stroke-linecap:round;stroke-linejoin:bevel;} .st6{fill:#FFFFFF;} .st7{fill:none;stroke:#A9B8CE;} .st8{fill:none;stroke:#A9B8CE;stroke-linecap:round;stroke-linejoin:bevel;} .st9{opacity:0.1;fill:#A9B8CE;enable-background:new ;} .st10{fill:#5D7B9D;} .st11{fill:#4C647F;} .st12{fill:#6A6A6A;} .st13{fill:#2C2C2C;} .st14{fill:#323E50;} .st15{opacity:0.2;fill:#FFFFFF;enable-background:new ;} .st16{opacity:0.1;enable-background:new ;} </style> <title>Graphic 1</title> <desc>Created with Sketch.</desc> <g id="Page-1" transform="translate(0.000000, 49.000000)"> <path id="Stroke-1" class="st0" d="M679.6,393l56.4,32.6"></path> <path id="Stroke-2" class="st0" d="M169.5,98.6L679.6,393"></path> <path id="Stroke-3" class="st0" d="M170,164l396.3,228.9"></path> <path id="Stroke-4" class="st0" d="M112.4,196.1l454,262.3"></path> <path id="Stroke-5" class="st0" d="M56.7,229.4l509.5,294.4"></path> <g id="Group-10" transform="translate(0.000000, 196.605000)"> <path id="Stroke-8" class="st0" d="M226.7,196.3l282.9,163.5"></path> </g> <path id="Stroke-11" class="st0" d="M170.1,360.2l56.6,32.7"></path> <path id="Stroke-12" class="st0" d="M56.7,294.7l113.4,65.5"></path> <path id="Stroke-13" class="st0" d="M339.8,523.8l56.7,32.8"></path> <path id="Stroke-15" class="st0" d="M170,425.7l113.3,65.5"></path> <path id="Stroke-16" class="st0" d="M0,327.5l57.2,33"></path> <path id="Stroke-18" class="st0" d="M170.3,491l56.7,32.8"></path> <path id="Stroke-19" class="st0" d="M736,360.4l56.4,32.6"></path> <path id="Stroke-21" class="st0" d="M170.2,33.5l565.9,327"></path> <g id="Group-32" transform="translate(227.000000, 0.105000)"> <path id="Stroke-22" class="st0" d="M0.2,0.4l509.2,294.2"></path> <path id="Stroke-24" class="st0" d="M113.5,0.4L566,261.9"></path> <path id="Stroke-26" class="st0" d="M282.2,33.1l283.3,163.7"></path> <path id="Stroke-28" class="st0" d="M452.5,66l56.4,32.6"></path> <path id="Stroke-30" class="st0" d="M338.9,0.4l57,33"></path> </g> <path id="Stroke-33" class="st0" d="M679.5,66L170.1,360.3"></path> <path id="Stroke-34" class="st0" d="M226.7,393L170,425.7"></path> <path id="Stroke-35" class="st0" d="M735.9,98.7L226.7,393"></path> <path id="Stroke-36" class="st0" d="M735.8,164.2L170.3,491"></path> <path id="Stroke-38" class="st0" d="M283.3,491.2L227,523.7"></path> <g id="Group-45" transform="translate(283.000000, 196.605000)"> <path id="Stroke-39" class="st0" d="M509.6,0.3L0.3,294.6"></path> <path id="Stroke-41" class="st0" d="M510,65.4L56.8,327.2"></path> <path id="Stroke-43" class="st0" d="M283.4,261.9L113.5,360"></path> </g> <path id="Stroke-46" class="st0" d="M736,360.4L679.6,393"></path> <g id="Group-51" transform="translate(509.500000, 392.605000)"> <path id="Stroke-47" class="st0" d="M56.6,131.2L0.1,163.8"></path> <path id="Stroke-49" class="st0" d="M282.9,0.4L226.5,33"></path> </g> <path id="Stroke-52" class="st0" d="M622.9,33.5L57.1,360.4"></path> <path id="Stroke-53" class="st0" d="M565.9,0.5L0,327.5"></path> <path id="Stroke-55" class="st0" d="M282.4,98.3l-225.8,131"></path> <path id="Stroke-59" class="st0" d="M169.5,98.6l-55.7,32.9"></path> <path id="Stroke-62" class="st0" d="M227.2,0.5l-57,33"></path> <path id="Stroke-55_2_" class="st0" d="M283,32.7l-57,33.1"></path> </g> <g id="lines" transform="translate(281.000000, 129.000000)"> <g id="Line-8"> <g> <polygon id="path-1_2_" points="227.2,50 287,84.5 173.3,149.9 172.3,148.1 283,84.5 223.3,50 309.8,-1.4 310.9,0.3 "></polygon> </g> <g> <polygon id="path-1_1_" class="st1" points="227.2,50 287,84.5 173.3,149.9 172.3,148.1 283,84.5 223.3,50 309.8,-1.4 310.9,0.3 "></polygon> </g> </g> <g id="Line-8_1_"> <g> <polygon id="path-3_2_" points="173.5,282.1 172.5,283.9 60.6,218 147.9,166.6 149,168.4 64.6,218 "></polygon> </g> <g> <polygon id="path-3_1_" class="st1" points="173.5,282.1 172.5,283.9 60.6,218 147.9,166.6 149,168.4 64.6,218 "></polygon> </g> </g> <g id="Line-8_2_"> <g> <polygon id="path-5_2_" points="4.6,47.9 148.9,131.4 147.9,133.1 0.6,47.9 27.5,32.3 28.5,34 "></polygon> </g> <g> <polygon id="path-5_1_" class="st1" points="4.6,47.9 148.9,131.4 147.9,133.1 0.6,47.9 27.5,32.3 28.5,34 "></polygon> </g> </g> </g> <g id="cube4" transform="translate(566.000000, 37.000000)"> <polygon id="Polygon-3" class="st2" points="57.5,0 114.4,32.8 114.4,78.2 57.5,111 0.6,78.2 0.6,32.8 "></polygon> <polygon id="Rectangle" class="st3" points="57.9,65.5 113.6,33.2 113.6,77.6 57.9,109.9 "></polygon> <path id="Polygon-3_1_" class="st4" d="M57.5,0.6L1.1,33v45l56.4,32.5L113.9,78V33L57.5,0.6z"></path> <path id="Line" class="st5" d="M1.5,33.2l56.1,32.3"></path> <path id="Line_1_" class="st5" d="M113.8,33.2L57.5,65.5"></path> <path id="Line_2_" class="st5" d="M57.5,110.2V65.5"></path> </g> <g id="Cubes-_x2F_-Gray" transform="translate(622.000000, 180.000000)"> <g id="Polygon-3_2_"> <g> <polygon id="path-7" class="st6" points="57.5,0 114.4,32.8 114.4,98.2 57.5,131 0.6,98.2 0.6,32.8 "></polygon> </g> <path class="st7" d="M57.5,0.6L1.1,33v65l56.4,32.5L113.9,98V33L57.5,0.6z"></path> </g> <path id="Line_3_" class="st8" d="M1.2,33.2l56.7,31.9"></path> <path id="Line_4_" class="st8" d="M113.8,33.2L57.9,65.1"></path> <path id="Line_5_" class="st8" d="M57.9,129V65.1"></path> <polygon id="Rectangle_1_" class="st9" points="58.3,64.7 113.4,31.9 113.4,97.6 58.3,128.5 "></polygon> </g> <g id="cube4_1_" transform="translate(452.000000, 334.000000)"> <polygon id="Polygon-3_3_" class="st10" points="57.6,0 114.6,32.8 114.6,108.2 57.6,141 0.6,108.2 0.6,32.8 "></polygon> <polygon id="Rectangle_2_" class="st11" points="57.9,65.5 113.6,33.2 113.4,107.7 57.9,139.9 "></polygon> <path id="Polygon-3_4_" class="st4" d="M57.5,0.6L1.1,33v75l56.4,32.5l56.4-32.5V33L57.5,0.6z"></path> <path id="Line_6_" class="st5" d="M1.5,33.2l56.1,32.3"></path> <path id="Line_7_" class="st5" d="M113.8,33.2L57.5,65.5"></path> <path id="Line_8_" class="st5" d="M57.5,140.2V65.5"></path> </g> <g id="Cubes-_x2F_-Gray_1_" transform="translate(112.000000, 147.000000)"> <g id="Polygon-3_5_"> <g> <polygon id="path-8" class="st6" points="57.5,0 114.4,32.8 114.4,98.2 57.5,131 0.6,98.2 0.6,32.8 "></polygon> </g> <path class="st7" d="M57.5,0.6L1.1,33v65l56.4,32.5L113.9,98V33L57.5,0.6z"></path> </g> <path id="Line_9_" class="st8" d="M1.2,33.2l56.7,31.9"></path> <path id="Line_10_" class="st8" d="M113.8,33.2L57.9,65.1"></path> <path id="Line_11_" class="st8" d="M57.9,129V65.1"></path> <polygon id="Rectangle_3_" class="st9" points="58.3,64.7 113.4,31.9 113.4,97.6 58.3,128.5 "></polygon> </g> <g id="cube4_2_" transform="translate(168.000000, 311.000000)"> <g id="Polygon-3_6_"> <g> <polygon id="path-9" class="st6" points="57.5,0 171.4,65.5 171.4,131 114.5,163.8 0.6,98.2 0.6,32.8 "></polygon> </g> <path class="st7" d="M57.5,0.6L1.1,33v65l113.4,65.2l56.4-32.5V65.8L57.5,0.6z"></path> </g> <path id="Line_12_" class="st8" d="M1.2,33.2l113.8,65"></path> <path id="Line_13_" class="st8" d="M170.8,66.2l-55.9,31.9"></path> <path id="Line_14_" class="st8" d="M115,162.3v-64"></path> <polygon id="Rectangle_4_" class="st9" points="115.3,98.4 169.4,66.9 169.4,131.6 115.3,162.5 "></polygon> </g> <g id="cube4_3_" transform="translate(282.000000, 0.000000)"> <polygon id="Polygon-3_7_" class="st10" points="57.5,0 114.4,32.8 114.4,148.2 57.5,181 0.6,148.2 0.6,32.8 "></polygon> <polygon id="Rectangle_5_" class="st11" points="57.9,65.5 113.4,33.6 113.4,147.7 57.9,179.9 "></polygon> <path id="Polygon-3_8_" class="st4" d="M57.5,0.6L1.1,33v115l56.4,32.5l56.4-32.5V33L57.5,0.6z"></path> <path id="Line_15_" class="st5" d="M1.5,33.2l56.1,32.3"></path> <path id="Line_16_" class="st5" d="M113.8,33.2L57.5,65.5"></path> <path id="Line_17_" class="st5" d="M57.5,180.2V65.5"></path> </g> <g id="hole" transform="translate(395.000000, 244.000000)"> <polygon id="Rectangle-8" class="st12" points="56,0.5 113.5,34.5 57,67.5 0.5,34.5 "></polygon> <polygon id="Rectangle-8_1_" class="st13" points="56,0.5 113.5,34.5 57,67.5 "></polygon> </g> <g id="main-cube" transform="translate(315.000000, 113.000000)"> <g id="Group-11"> <g id="Mask"> </g> <g> <g transform="translate(91.000000, 120.000000)"> <g id="Polygon-3_9_"> <g> <polygon id="path-12_2_" points="46.7,-32.2 93.5,-5.4 93.5,48 46.7,74.8 -0.1,48 -0.1,-5.4 "></polygon> </g> <g> <polygon id="path-12_1_" class="st14" points="46.7,-32.2 93.5,-5.4 93.5,48 46.7,74.8 -0.1,48 -0.1,-5.4 "></polygon> </g> </g> <polygon id="Polygon-3_10_" class="st15" points="46.7,-32.2 93.5,-5.4 45.9,21.6 -0.1,-5.4 "></polygon> <polygon id="Rectangle_6_" class="st16" points="45.9,21.6 93.5,-5.4 93.7,48.5 45.9,73.8 "></polygon> <g id="logo-icon" transform="translate(46.611095, 26.612565) rotate(-58.000000) translate(-46.611095, -26.612565) translate(33.111095, 11.612565)"> <path id="Combined-Shape" class="st6" d="M42.5-13.7c6.5,3.8,11,11,11,17.8s-4.5,9.7-11,7.2v-5c3.2,0.9,5.4-1,5.4-4.9 s-2.2-7.9-5.4-10.1V-13.7z M33.1-5.7c0,3.8,2.2,7.8,5.4,10.1v5c-6.5-3.8-11-11-11-17.8c0-6.8,4.5-9.6,11-7.2v5 C35.3-11.4,33.1-9.5,33.1-5.7z"></path> </g> </g> </g> </g> </g> <g id="cube4_5_" transform="translate(566.000000, 37.000000)"> <polygon id="Polygon-3_14_" class="st10" points="57.5,0 114.4,32.8 114.4,78.2 57.5,111 0.6,78.2 0.6,32.8 "></polygon> <polygon id="Rectangle_8_" class="st11" points="57.9,65.5 113.6,33.2 113.6,77.6 57.9,109.9 "></polygon> <path id="Polygon-3_13_" class="st4" d="M57.5,0.6L1.1,33v45l56.4,32.5L113.9,78V33L57.5,0.6z"></path> <path id="Line_23_" class="st5" d="M1.5,33.2l56.1,32.3"></path> <path id="Line_22_" class="st5" d="M113.8,33.2L57.5,65.5"></path> <path id="Line_21_" class="st5" d="M57.5,110.2V65.5"></path> </g> </svg> 