<?xml version="1.0" encoding="UTF-8" standalone="no"?>
<!-- Created with Inkscape (http://www.inkscape.org/) -->

<svg
   xmlns:dc="http://purl.org/dc/elements/1.1/"
   xmlns:cc="http://creativecommons.org/ns#"
   xmlns:rdf="http://www.w3.org/1999/02/22-rdf-syntax-ns#"
   xmlns:svg="http://www.w3.org/2000/svg"
   xmlns="http://www.w3.org/2000/svg"
   xmlns:sodipodi="http://sodipodi.sourceforge.net/DTD/sodipodi-0.dtd"
   xmlns:inkscape="http://www.inkscape.org/namespaces/inkscape"
   width="800"
   height="900"
   id="svg2985"
   version="1.1"
   inkscape:version="0.48.4 r9939"
   sodipodi:docname="Koverse-Administrative-Action.svg">
  <defs
     id="defs2987" />
  <sodipodi:namedview
     id="base"
     pagecolor="#ffffff"
     bordercolor="#666666"
     borderopacity="1.0"
     inkscape:pageopacity="0.0"
     inkscape:pageshadow="2"
     inkscape:zoom="0.6"
     inkscape:cx="200.83333"
     inkscape:cy="570.4386"
     inkscape:current-layer="layer1"
     inkscape:document-units="px"
     showgrid="false"
     inkscape:window-width="1920"
     inkscape:window-height="1137"
     inkscape:window-x="-8"
     inkscape:window-y="-8"
     inkscape:window-maximized="1" />
  <metadata
     id="metadata2990">
    <rdf:RDF>
      <cc:Work
         rdf:about="">
        <dc:format>image/svg+xml</dc:format>
        <dc:type
           rdf:resource="http://purl.org/dc/dcmitype/StillImage" />
        <dc:title />
      </cc:Work>
    </rdf:RDF>
  </metadata>
  <g
     id="layer1"
     inkscape:label="Layer 1"
     inkscape:groupmode="layer"
     transform="translate(0,300)">
    <g
       transform="matrix(3.826389,0,0,3.826389,40.000004,-275.65277)"
       id="user_x5F_close">
      <g
         id="g9">
        <path
           inkscape:connector-curvature="0"
           d="m 0,32 h 32 v -8 c 0,0 0,-4 -4,-4 -2,0 -20,0 -24,0 -4,0 -4,4 -4,4 v 8 z"
           id="path11" />
      </g>
      <g
         id="g13">
        <circle
           d="m 24,10 c 0,4.418278 -3.581722,8 -8,8 -4.418278,0 -8,-3.581722 -8,-8 0,-4.418278 3.581722,-8 8,-8 4.418278,0 8,3.581722 8,8 z"
           sodipodi:ry="8"
           sodipodi:rx="8"
           sodipodi:cy="10"
           sodipodi:cx="16"
           cx="16"
           cy="10"
           r="8"
           id="circle15" />
      </g>
    </g>
    <g
       id="background"
       transform="matrix(4.28125,0,0,4.28125,70.666668,59.33333)">
      <rect
         style="fill:none"
         y="0"
         x="0"
         width="32"
         height="32"
         id="rect6" />
    </g>
    <g
       id="background-4"
       transform="matrix(2.875,0,0,2.875,334,-197.33334)">
      <rect
         style="fill:none"
         y="0"
         x="0"
         width="32"
         height="32"
         id="rect6-0" />
    </g>
    <g
       id="background-2"
       transform="matrix(2.25,0,0,2.25,110.66667,-297.33333)">
      <rect
         style="fill:none"
         y="0"
         x="0"
         width="32"
         height="32"
         id="rect6-45" />
    </g>
    <g
       id="background-92"
       transform="matrix(3.6041667,0,0,3.6041667,105.66663,-92.33334)">
      <rect
         style="fill:none"
         y="0"
         x="0"
         width="32"
         height="32"
         id="rect6-7" />
    </g>
    <g
       id="background-3"
       transform="matrix(4.6458333,0,0,4.6458333,354.25049,49.33334)">
      <rect
         style="fill:none"
         y="0"
         x="0"
         width="32"
         height="32"
         id="rect6-3" />
    </g>
    <text
       xml:space="preserve"
       style="font-size:31.0547123px;font-style:normal;font-weight:normal;line-height:125%;letter-spacing:0px;word-spacing:0px;fill:#000000;fill-opacity:1;stroke:none;font-family:Sans"
       x="199.60901"
       y="-235.13513"
       id="text3079"
       sodipodi:linespacing="125%"><tspan
         sodipodi:role="line"
         x="199.60901"
         y="-235.13513"
         id="tspan3081"><tspan
           x="199.60901"
           y="-235.13513"
           id="tspan3083">1. User submits administrative action </tspan></tspan><tspan
         sodipodi:role="line"
         x="199.60901"
         y="-196.31674"
         id="tspan3085"><tspan
           x="199.60901"
           y="-196.31674"
           id="tspan3087">request to Thrift client (web app).</tspan><tspan
           dx="0"
           x="653.78418"
           y="-196.31674"
           id="tspan3089" /></tspan></text>
    <text
       xml:space="preserve"
       style="font-size:31.0547123px;font-style:normal;font-weight:normal;line-height:125%;letter-spacing:0px;word-spacing:0px;fill:#000000;fill-opacity:1;stroke:none;font-family:Sans"
       x="353.9624"
       y="-98.334656"
       id="text3091"
       sodipodi:linespacing="125%"><tspan
         sodipodi:role="line"
         x="353.9624"
         y="-98.334656"
         id="tspan3093"><tspan
           x="353.9624"
           y="-98.334656"
           id="tspan3095">2. Web app checks request, </tspan></tspan><tspan
         sodipodi:role="line"
         x="353.9624"
         y="-59.516262"
         id="tspan3097"><tspan
           x="353.9624"
           y="-59.516262"
           id="tspan3099">forwards authenticated </tspan></tspan><tspan
         sodipodi:role="line"
         x="353.9624"
         y="-20.69787"
         id="tspan3101"><tspan
           x="353.9624"
           y="-20.69787"
           id="tspan3103">requests to Koverse Server.</tspan></tspan></text>
    <g
       transform="matrix(2.3888889,0,0,2.3888889,91.77778,-132.88889)"
       id="arrow_x5F_full_x5F_lowerright">
      <polygon
         points="22,14 12,4 4,12 14,22 8,28 28,28 28,8 "
         id="polygon9" />
    </g>
    <g
       id="background-0"
       transform="matrix(2.3020833,0,0,2.3020833,197.3333,52.66667)">
      <rect
         style="fill:none"
         y="0"
         x="0"
         width="32"
         height="32"
         id="rect6-2" />
    </g>
    <g
       id="backbord"
       transform="matrix(4.28125,0,0,4.28125,317.33337,68)">
      <rect
         style="fill:none"
         y="0"
         x="0"
         width="32"
         height="32"
         id="rect6-9" />
    </g>
    <g
       transform="matrix(4.2142858,0,0,4.2142858,325.90476,186.57143)"
       id="server-7">
      <path
         inkscape:connector-curvature="0"
         d="M 30,10 V 2 H 2 v 8 h 2 v 2 H 2 v 8 h 2 v 2 H 2 v 8 h 28 v -8 h -2 v -2 h 2 v -8 h -2 v -2 h 2 z M 4,6 H 8 V 8 H 4 V 6 z m 0,10 h 4 v 2 H 4 V 16 z M 8,28 H 4 v -2 h 4 v 2 z M 26,22 H 6 v -2 h 20 v 2 z M 26,12 H 6 v -2 h 20 v 2 z"
         id="path9-88" />
    </g>
    <g
       transform="matrix(2.3888889,0,0,2.3888889,256.11111,90.777776)"
       id="arrow_x5F_full_x5F_lowerright-2">
      <polygon
         points="28,28 28,8 22,14 12,4 4,12 14,22 8,28 "
         id="polygon9-91" />
    </g>
    <text
       xml:space="preserve"
       style="font-size:31.0547123px;font-style:normal;font-weight:normal;line-height:125%;letter-spacing:0px;word-spacing:0px;fill:#000000;fill-opacity:1;stroke:none;font-family:Sans"
       x="486.46173"
       y="75.228127"
       id="text3105"
       sodipodi:linespacing="125%"><tspan
         sodipodi:role="line"
         x="486.46173"
         y="75.228127"
         id="tspan3107"><tspan
           x="486.46173"
           y="75.228127"
           id="tspan3109">3. Koverse Server </tspan></tspan><tspan
         sodipodi:role="line"
         x="486.46173"
         y="114.04652"
         id="tspan3111"><tspan
           x="486.46173"
           y="114.04652"
           id="tspan3113">authorizes the </tspan></tspan><tspan
         sodipodi:role="line"
         x="486.46173"
         y="152.86491"
         id="tspan3115"><tspan
           x="486.46173"
           y="152.86491"
           id="tspan3117">request if the user is </tspan></tspan><tspan
         sodipodi:role="line"
         x="486.46173"
         y="191.6833"
         id="tspan3119"><tspan
           x="486.46173"
           y="191.6833"
           id="tspan3121">in a group that has </tspan></tspan><tspan
         sodipodi:role="line"
         x="486.46173"
         y="230.50169"
         id="tspan3123"><tspan
           x="486.46173"
           y="230.50169"
           id="tspan3125">permission to </tspan></tspan><tspan
         sodipodi:role="line"
         x="486.46173"
         y="269.32007"
         id="tspan3127"><tspan
           x="486.46173"
           y="269.32007"
           id="tspan3129">execute the action.</tspan></tspan></text>
    <flowRoot
       xml:space="preserve"
       id="flowRoot3789"
       style="font-size:40px;font-style:normal;font-weight:normal;line-height:125%;letter-spacing:0px;word-spacing:0px;fill:#000000;fill-opacity:1;stroke:none;font-family:Sans"
       transform="translate(-10,-432)"><flowRegion
         id="flowRegion3791"><rect
           id="rect3793"
           width="155"
           height="125"
           x="41.666668"
           y="1040" /></flowRegion><flowPara
         id="flowPara3795" /></flowRoot>    <g
       transform="matrix(4.2222222,0,0,4.2222222,489.88889,393.55556)"
       id="server_x5F_accept">
      <path
         inkscape:connector-curvature="0"
         d="M 30,17.349 V 12 h -2 v -2 h 2 V 2 H 2 v 8 h 2 v 2 H 2 v 8 h 2 v 2 H 2 v 8 h 15.349 c 1.545,1.248 3.51,1.999 5.651,2 4.971,-0.002 8.998,-4.029 9,-9 -0.001,-2.142 -0.752,-4.106 -2,-5.651 z M 14.059,22 H 6 v -2 h 8.522 c -0.225,0.638 -0.387,1.306 -0.463,2 z M 26,12 H 6 v -2 h 20 v 2 z M 4,6 H 8 V 8 H 4 V 6 z m 0,10 h 4 v 2 H 4 V 16 z M 8,28 H 4 v -2 h 4 v 2 z m 15,1.883 C 19.199,29.874 16.124,26.799 16.115,23 16.124,19.199 19.199,16.124 23,16.115 26.799,16.124 29.874,19.199 29.883,23 29.874,26.799 26.799,29.874 23,29.883 z"
         id="path9" />
      <polygon
         points="26,19 28,21 22,27 18,23 20,21 22,23 "
         id="polygon11" />
    </g>
    <g
       id="server-8"
       transform="matrix(3.65625,0,0,3.65625,186.59863,-59.65098)">
      <path
         inkscape:connector-curvature="0"
         d="m 6,0 v 30 h 2 l 0,2 h 4 v -2 h 8 v 2 h 4 v -2 h 2 V 0 H 6 z m 6,6 H 8 V 4 h 4 v 2 z"
         id="path9-2" />
    </g>
    <text
       xml:space="preserve"
       style="font-size:31.0547123px;font-style:normal;font-weight:normal;line-height:125%;letter-spacing:0px;word-spacing:0px;fill:#000000;fill-opacity:1;stroke:none;font-family:Sans"
       x="183.20767"
       y="-79.119446"
       id="text3131"
       sodipodi:linespacing="125%"><tspan
         sodipodi:role="line"
         x="183.20767"
         y="-79.119446"
         id="tspan3133"><tspan
           x="183.20767"
           y="-79.119446"
           id="tspan3135">Web App</tspan></tspan></text>
    <g
       transform="matrix(3.4074074,0,0,3.4074074,45.629623,118.96297)"
       id="cancel_x5F_badge">
      <path
         inkscape:connector-curvature="0"
         d="m 14,23 c 0,-4.973 4.027,-9 9,-9 l 0,0 c 4.971,0 8.998,4.027 9,9 l 0,0 c -0.002,4.971 -4.029,8.998 -9,9 l 0,0 c -4.973,-0.002 -9,-4.029 -9,-9 l 0,0 z m 2.116,0 c 0.008,3.799 3.083,6.874 6.884,6.883 l 0,0 C 26.799,29.874 29.874,26.799 29.883,23 l 0,0 C 29.874,19.199 26.799,16.124 23,16.115 l 0,0 C 19.199,16.124 16.124,19.199 16.116,23 l 0,0 z"
         id="path9-42" />
      <polygon
         points="25,27 27,25 25,23 27,21 25,19 23,21 21,19 19,21 21,23 19,25 21,27 23,25 "
         id="polygon11-0" />
    </g>
    <text
       xml:space="preserve"
       style="font-size:31.0547123px;font-style:normal;font-weight:normal;line-height:125%;letter-spacing:0px;word-spacing:0px;fill:#000000;fill-opacity:1;stroke:none;font-family:Sans"
       x="15.743922"
       y="266.97073"
       id="text3137"
       sodipodi:linespacing="125%"><tspan
         sodipodi:role="line"
         x="15.743922"
         y="266.97073"
         id="tspan3139"><tspan
           x="15.743922"
           y="266.97073"
           id="tspan3141">Unauthenticated</tspan></tspan></text>
    <flowRoot
       xml:space="preserve"
       id="flowRoot4152"
       style="font-size:40px;font-style:normal;font-weight:normal;line-height:125%;letter-spacing:0px;word-spacing:0px;fill:#000000;fill-opacity:1;stroke:none;font-family:Sans"
       transform="translate(-10,-312)"><flowRegion
         id="flowRegion4154"><rect
           id="rect4156"
           width="238.33333"
           height="106.66666"
           x="91.666664"
           y="648.33331" /></flowRegion><flowPara
         id="flowPara4158" /></flowRoot>    <flowRoot
       xml:space="preserve"
       id="flowRoot4367"
       style="font-size:40px;font-style:normal;font-weight:normal;line-height:125%;letter-spacing:0px;word-spacing:0px;fill:#000000;fill-opacity:1;stroke:none;font-family:Sans"
       transform="translate(-10,-312)"><flowRegion
         id="flowRegion4369"><rect
           id="rect4371"
           width="541.66669"
           height="133.33333"
           x="13.333333"
           y="851.66669" /></flowRegion><flowPara
         id="flowPara4373" /></flowRoot>    <flowRoot
       xml:space="preserve"
       id="flowRoot4377"
       style="font-size:40px;font-style:normal;font-weight:normal;line-height:125%;letter-spacing:0px;word-spacing:0px;fill:#000000;fill-opacity:1;stroke:none;font-family:Sans"
       transform="translate(-10,-312)"><flowRegion
         id="flowRegion4379"><rect
           id="rect4381"
           width="360"
           height="173.33333"
           x="23.333334"
           y="443.33334" /></flowRegion><flowPara
         id="flowPara4383" /></flowRoot>    <g
       transform="matrix(-2.3888889,0,0,2.3888889,234.55555,90.777774)"
       id="arrow_x5F_full_x5F_lowerright-2-6">
      <polygon
         points="8,28 28,28 28,8 22,14 12,4 4,12 14,22 "
         id="polygon9-91-4" />
    </g>
    <g
       id="background-39"
       transform="matrix(4.28125,0,0,4.28125,212.66666,301.33333)">
      <rect
         style="fill:none"
         y="0"
         x="0"
         width="32"
         height="32"
         id="rect6-8" />
    </g>
    <g
       transform="matrix(2.3888889,0,0,2.3888889,398.11111,342.77778)"
       id="arrow_x5F_full_x5F_lowerright-2-8">
      <polygon
         points="12,4 4,12 14,22 8,28 28,28 28,8 22,14 "
         id="polygon9-91-0" />
    </g>
    <g
       transform="matrix(3.4074074,0,0,3.4074074,187.62962,370.96297)"
       id="cancel_x5F_badge-8">
      <path
         inkscape:connector-curvature="0"
         d="m 14,23 c 0,-4.973 4.027,-9 9,-9 l 0,0 c 4.971,0 8.998,4.027 9,9 l 0,0 c -0.002,4.971 -4.029,8.998 -9,9 l 0,0 c -4.973,-0.002 -9,-4.029 -9,-9 l 0,0 z m 2.116,0 c 0.008,3.799 3.083,6.874 6.884,6.883 l 0,0 C 26.799,29.874 29.874,26.799 29.883,23 l 0,0 C 29.874,19.199 26.799,16.124 23,16.115 l 0,0 C 19.199,16.124 16.124,19.199 16.116,23 l 0,0 z"
         id="path9-42-7" />
      <polygon
         points="21,23 19,25 21,27 23,25 25,27 27,25 25,23 27,21 25,19 23,21 21,19 19,21 "
         id="polygon11-0-7" />
    </g>
    <text
       xml:space="preserve"
       style="font-size:31.0547123px;font-style:normal;font-weight:normal;line-height:125%;letter-spacing:0px;word-spacing:0px;fill:#000000;fill-opacity:1;stroke:none;font-family:Sans"
       x="157.74393"
       y="518.97076"
       id="text3143"
       sodipodi:linespacing="125%"><tspan
         sodipodi:role="line"
         x="157.74393"
         y="518.97076"
         id="tspan3145"><tspan
           x="157.74393"
           y="518.97076"
           id="tspan3147">Unauthorized</tspan></tspan></text>
    <g
       transform="matrix(-2.3888889,0,0,2.3888889,376.55555,342.77777)"
       id="arrow_x5F_full_x5F_lowerright-2-6-7">
      <polygon
         points="22,14 12,4 4,12 14,22 8,28 28,28 28,8 "
         id="polygon9-91-4-1" />
    </g>
    <flowRoot
       xml:space="preserve"
       id="flowRoot4502"
       style="font-size:40px;font-style:normal;font-weight:normal;line-height:125%;letter-spacing:0px;word-spacing:0px;fill:#000000;fill-opacity:1;stroke:none;font-family:Sans"
       transform="translate(-10,-312)"><flowRegion
         id="flowRegion4504"><rect
           id="rect4506"
           width="496.66666"
           height="486.66666"
           x="341.66666"
           y="171.66667" /></flowRegion><flowPara
         id="flowPara4508" /></flowRoot>    <flowRoot
       xml:space="preserve"
       id="flowRoot4510"
       style="font-size:40px;font-style:normal;font-weight:normal;line-height:125%;letter-spacing:0px;word-spacing:0px;fill:#000000;fill-opacity:1;stroke:none;font-family:Sans"
       transform="translate(-10,-312)"><flowRegion
         id="flowRegion4512"><rect
           id="rect4514"
           width="568.33331"
           height="678.33331"
           x="348.33334"
           y="343.33334" /></flowRegion><flowPara
         id="flowPara4516" /></flowRoot>    <flowRoot
       xml:space="preserve"
       id="flowRoot4518"
       style="font-size:40px;font-style:normal;font-weight:normal;line-height:125%;letter-spacing:0px;word-spacing:0px;fill:#000000;fill-opacity:1;stroke:none;font-family:Sans"
       transform="translate(-10,-312)"><flowRegion
         id="flowRegion4520"><rect
           id="rect4522"
           width="451.66666"
           height="88.333336"
           x="310"
           y="900" /></flowRegion><flowPara
         id="flowPara4524" /></flowRoot>  </g>
</svg>
