<?xml version="1.0" encoding="UTF-8" standalone="no"?>
<!-- Created with Inkscape (http://www.inkscape.org/) -->

<svg
   xmlns:dc="http://purl.org/dc/elements/1.1/"
   xmlns:cc="http://creativecommons.org/ns#"
   xmlns:rdf="http://www.w3.org/1999/02/22-rdf-syntax-ns#"
   xmlns:svg="http://www.w3.org/2000/svg"
   xmlns="http://www.w3.org/2000/svg"
   xmlns:sodipodi="http://sodipodi.sourceforge.net/DTD/sodipodi-0.dtd"
   xmlns:inkscape="http://www.inkscape.org/namespaces/inkscape"
   width="800px"
   height="600px"
   id="svg2985"
   version="1.1"
   inkscape:version="0.48.4 r9939"
   sodipodi:docname="Koverse-Default-Authentication.svg">
  <defs
     id="defs2987" />
  <sodipodi:namedview
     id="base"
     pagecolor="#ffffff"
     bordercolor="#666666"
     borderopacity="1.0"
     inkscape:pageopacity="0.0"
     inkscape:pageshadow="2"
     inkscape:zoom="0.6"
     inkscape:cx="208.33333"
     inkscape:cy="300"
     inkscape:current-layer="layer1"
     inkscape:document-units="px"
     showgrid="false"
     inkscape:window-width="1920"
     inkscape:window-height="1137"
     inkscape:window-x="-8"
     inkscape:window-y="-8"
     inkscape:window-maximized="1" />
  <metadata
     id="metadata2990">
    <rdf:RDF>
      <cc:Work
         rdf:about="">
        <dc:format>image/svg+xml</dc:format>
        <dc:type
           rdf:resource="http://purl.org/dc/dcmitype/StillImage" />
        <dc:title />
      </cc:Work>
    </rdf:RDF>
  </metadata>
  <g
     id="layer1"
     inkscape:label="Layer 1"
     inkscape:groupmode="layer">
    <g
       transform="matrix(3.826389,0,0,3.826389,34,24.347223)"
       id="user_x5F_close">
      <g
         id="g9">
        <path
           inkscape:connector-curvature="0"
           d="m 0,32 h 32 v -8 c 0,0 0,-4 -4,-4 -2,0 -20,0 -24,0 -4,0 -4,4 -4,4 v 8 z"
           id="path11" />
      </g>
      <g
         id="g13">
        <circle
           d="m 24,10 c 0,4.418278 -3.581722,8 -8,8 -4.418278,0 -8,-3.581722 -8,-8 0,-4.418278 3.581722,-8 8,-8 4.418278,0 8,3.581722 8,8 z"
           sodipodi:ry="8"
           sodipodi:rx="8"
           sodipodi:cy="10"
           sodipodi:cx="16"
           cx="16"
           cy="10"
           r="8"
           id="circle15" />
      </g>
    </g>
    <g
       transform="matrix(4.2142858,0,0,4.2142858,601.2381,203.57143)"
       id="server">
      <path
         inkscape:connector-curvature="0"
         d="M 30,10 V 2 H 2 v 8 h 2 v 2 H 2 v 8 h 2 v 2 H 2 v 8 h 28 v -8 h -2 v -2 h 2 v -8 h -2 v -2 h 2 z M 4,6 H 8 V 8 H 4 V 6 z m 0,10 h 4 v 2 H 4 V 16 z M 8,28 H 4 v -2 h 4 v 2 z M 26,22 H 6 v -2 h 20 v 2 z M 26,12 H 6 v -2 h 20 v 2 z"
         id="path9" />
    </g>
    <g
       id="background"
       transform="matrix(4.28125,0,0,4.28125,64.666663,359.33333)">
      <rect
         style="fill:none"
         y="0"
         x="0"
         width="32"
         height="32"
         id="rect6" />
    </g>
    <g
       id="user_x5F_close_x5F_security"
       transform="matrix(4.1076389,0,0,4.1076389,31.333329,418.22221)">
      <path
         inkscape:connector-curvature="0"
         d="m 32,23 c -0.002,-4.973 -4.029,-9 -9,-9 -0.025,0 -0.049,0.003 -0.074,0.004 C 23.608,12.826 24,11.459 24,10 24,5.582 20.418,2 16,2 11.582,2 8,5.582 8,10 c 0,4.26 3.332,7.732 7.531,7.977 -0.419,0.622 -0.753,1.304 -1.008,2.023 H 4 c -4,0 -4,4 -4,4 v 8 h 32 v -8 c 0,0 0,-0.793 0,-1 z m -2.117,0 C 29.874,26.799 26.799,29.874 23,29.883 19.199,29.874 16.124,26.799 16.116,23 16.124,19.199 19.199,16.124 23,16.116 c 3.799,0.008 6.874,3.083 6.883,6.884 z"
         id="path9-1" />
      <path
         inkscape:connector-curvature="0"
         d="m 26.144,22 c 0.008,-0.131 0.014,-0.267 0.014,-0.409 -0.006,-0.678 -0.088,-1.492 -0.556,-2.259 -0.457,-0.779 -1.438,-1.36 -2.602,-1.333 -1.165,-0.027 -2.148,0.554 -2.605,1.333 -0.47,0.767 -0.552,1.581 -0.556,2.259 0,0.143 0.006,0.278 0.014,0.409 H 19 v 5 h 8 v -5 h -0.856 z m -4.307,-0.409 c -0.004,-0.478 0.093,-0.958 0.254,-1.198 0.173,-0.227 0.27,-0.366 0.909,-0.394 0.637,0.027 0.73,0.165 0.904,0.394 0.162,0.24 0.259,0.723 0.253,1.198 0,0.145 -0.008,0.28 -0.019,0.409 h -2.282 c -0.01,-0.131 -0.019,-0.268 -0.019,-0.409 z"
         id="path11-7" />
    </g>
    <g
       id="background-4"
       transform="matrix(2.875,0,0,2.875,328,102.66666)">
      <rect
         style="fill:none"
         y="0"
         x="0"
         width="32"
         height="32"
         id="rect6-0" />
    </g>
    <g
       id="background-9"
       transform="matrix(3.4479166,0,0,3.4479166,521.33333,397.99999)">
      <rect
         style="fill:none"
         y="0"
         x="0"
         width="32"
         height="32"
         id="rect6-4" />
    </g>
    <g
       id="database_x5F_security"
       transform="matrix(3.1874999,0,0,3.1874999,623.52074,451.66665)">
      <path
         inkscape:connector-curvature="0"
         d="M 29.998,17.348 V 4.999 C 30.025,4.727 29.793,3.284 27.896,2.148 26.012,0.997 22.598,0.004 16.002,0 9.403,0.004 5.989,0.997 4.103,2.148 2.208,3.283 1.975,4.726 2.002,4.999 v 22.74 C 1.967,28.092 2.307,29.367 4.178,30.264 6.045,31.19 9.417,31.994 16,32 17.978,31.998 19.66,31.924 21.104,31.796 21.716,31.927 22.349,32 22.999,32 27.97,31.998 31.998,27.97 32,22.999 31.999,20.856 31.248,18.893 29.998,17.348 z M 16,30 C 9.586,30.007 6.459,29.179 5.076,28.476 4.382,28.126 4.089,27.828 4.001,27.696 3.983,27.669 4.01,27.649 4.003,27.634 L 4,7.783 C 4.037,7.806 4.065,7.83 4.103,7.852 5.989,9.001 9.403,9.993 16.002,10 22.598,9.994 26.012,9.001 27.897,7.853 27.934,7.83 27.963,7.805 28,7.783 v 7.735 C 26.569,14.561 24.85,14 22.999,14 c -4.972,0.002 -8.998,4.028 -9,9 C 14,25.822 15.3,28.338 17.332,29.988 16.902,29.995 16.465,30.001 16,30 z m 6.999,-0.002 c -3.865,-0.006 -6.992,-3.133 -7,-6.999 0.008,-3.865 3.135,-6.992 7,-7 3.866,0.008 6.993,3.135 6.999,7 -0.006,3.866 -3.133,6.993 -6.999,6.999 z"
         id="path9-8" />
      <path
         inkscape:connector-curvature="0"
         d="m 26.144,22 c 0.008,-0.131 0.014,-0.267 0.014,-0.409 -0.006,-0.678 -0.088,-1.492 -0.556,-2.259 -0.457,-0.779 -1.438,-1.36 -2.602,-1.333 -1.165,-0.027 -2.148,0.554 -2.605,1.333 -0.47,0.767 -0.552,1.581 -0.556,2.259 0,0.143 0.006,0.278 0.014,0.409 H 19 v 5 h 8 v -5 h -0.856 z m -4.307,-0.409 c -0.004,-0.478 0.093,-0.958 0.254,-1.198 0.173,-0.227 0.27,-0.366 0.909,-0.394 0.637,0.027 0.73,0.165 0.904,0.394 0.162,0.24 0.259,0.723 0.253,1.198 0,0.145 -0.008,0.28 -0.019,0.409 h -2.282 c -0.01,-0.131 -0.019,-0.268 -0.019,-0.409 z"
         id="path11-8" />
    </g>
    <text
       xml:space="preserve"
       style="font-size:31.0547123px;font-style:normal;font-weight:normal;line-height:125%;letter-spacing:0px;word-spacing:0px;fill:#000000;fill-opacity:1;stroke:none;font-family:Sans"
       x="525.95227"
       y="402.31644"
       id="text3066"
       sodipodi:linespacing="125%"><tspan
         sodipodi:role="line"
         x="525.95227"
         y="402.31644"
         id="tspan3068"><tspan
           x="525.95227"
           y="402.31644"
           id="tspan3070">sha-256</tspan></tspan></text>
    <g
       id="size_x5F_width"
       transform="matrix(2.40625,0,0,2.40625,473.33332,252.66668)">
      <path
         inkscape:connector-curvature="0"
         d="m 32,16.001 -6,-6 v 4 H 23.999 V 8 h -16 v 6.001 H 6 v -4 l -6,6 6,6 v -4 H 7.999 V 24 h 16 V 18.001 H 26 v 4 l 6,-6 z M 21.999,22 h -12 V 10 h 12 v 12 z"
         id="path9-14" />
    </g>
    <g
       id="background-92"
       transform="matrix(3.6041667,0,0,3.6041667,99.66663,207.66666)">
      <rect
         style="fill:none"
         y="0"
         x="0"
         width="32"
         height="32"
         id="rect6-7" />
    </g>
    <text
       xml:space="preserve"
       style="font-size:31.0547123px;font-style:normal;font-weight:normal;line-height:125%;letter-spacing:0px;word-spacing:0px;fill:#000000;fill-opacity:1;stroke:none;font-family:Sans"
       x="453.07727"
       y="254.63742"
       id="text3088"
       sodipodi:linespacing="125%"><tspan
         sodipodi:role="line"
         x="453.07727"
         y="254.63742"
         id="tspan3090"><tspan
           x="453.07727"
           y="254.63742"
           id="tspan3092">Thrift API</tspan></tspan></text>
    <g
       id="background-3"
       transform="matrix(4.6458333,0,0,4.6458333,404.6667,349.33334)">
      <rect
         style="fill:none"
         y="0"
         x="0"
         width="32"
         height="32"
         id="rect6-3" />
    </g>
    <g
       id="size_x5F_height"
       transform="matrix(2.4583333,0,0,2.4583333,633.00003,352.66668)">
      <path
         inkscape:connector-curvature="0"
         d="M 18,8 V 6 h 4 L 16,0 10,6 h 4 V 8 H 8 v 16 h 6 v 2 h -4 l 6,6 6,-6 h -4 v -2 h 6 V 8 h -6 z m 4,14 H 10 V 10 h 12 v 12 z"
         id="path9-4" />
    </g>
    <text
       xml:space="preserve"
       style="font-size:31.0547123px;font-style:normal;font-weight:normal;line-height:125%;letter-spacing:0px;word-spacing:0px;fill:#000000;fill-opacity:1;stroke:none;font-family:Sans"
       x="193.60901"
       y="64.864868"
       id="text3106"
       sodipodi:linespacing="125%"><tspan
         sodipodi:role="line"
         x="193.60901"
         y="64.864868"
         id="tspan3108"><tspan
           x="193.60901"
           y="64.864868"
           id="tspan3110">1. Unauthenticated user provides </tspan></tspan><tspan
         sodipodi:role="line"
         x="193.60901"
         y="103.68326"
         id="tspan3112"><tspan
           x="193.60901"
           y="103.68326"
           id="tspan3114">credentials to Thrift client (web app).</tspan><tspan
           dx="0"
           x="694.42688"
           y="103.68326"
           id="tspan3116" /></tspan></text>
    <text
       xml:space="preserve"
       style="font-size:31.0547123px;font-style:normal;font-weight:normal;line-height:125%;letter-spacing:0px;word-spacing:0px;fill:#000000;fill-opacity:1;stroke:none;font-family:Sans"
       x="27.295721"
       y="247.332"
       id="text3072"
       sodipodi:linespacing="125%"><tspan
         sodipodi:role="line"
         x="27.295721"
         y="247.332"
         id="tspan3074"><tspan
           x="27.295721"
           y="247.332"
           id="tspan3076">2. Web app calls </tspan></tspan><tspan
         sodipodi:role="line"
         x="27.295721"
         y="286.15039"
         id="tspan3078"><tspan
           x="27.295721"
           y="286.15039"
           id="tspan3080">Koverse Server </tspan></tspan><tspan
         sodipodi:role="line"
         x="27.295721"
         y="324.96878"
         id="tspan3082"><tspan
           x="27.295721"
           y="324.96878"
           id="tspan3084">through Thrift API.</tspan><tspan
           dx="0"
           x="279.43329"
           y="324.96878"
           id="tspan3086" /></tspan></text>
    <text
       xml:space="preserve"
       style="font-size:31.0547123px;font-style:normal;font-weight:normal;line-height:125%;letter-spacing:0px;word-spacing:0px;fill:#000000;fill-opacity:1;stroke:none;font-family:Sans"
       x="183.39607"
       y="471.90247"
       id="text3050"
       sodipodi:linespacing="125%"><tspan
         sodipodi:role="line"
         x="183.39607"
         y="471.90247"
         id="tspan3052"><tspan
           x="183.39607"
           y="471.90247"
           id="tspan3054">3. Koverse Server validates </tspan></tspan><tspan
         sodipodi:role="line"
         x="183.39607"
         y="510.72086"
         id="tspan3056"><tspan
           x="183.39607"
           y="510.72086"
           id="tspan3058">credentials, stores with secure </tspan></tspan><tspan
         sodipodi:role="line"
         x="183.39607"
         y="549.53925"
         id="tspan3060"><tspan
           x="183.39607"
           y="549.53925"
           id="tspan3062">hash and returns user session.</tspan><tspan
           dx="0"
           x="608.27551"
           y="549.53925"
           id="tspan3064" /></tspan></text>
    <g
       transform="matrix(2.3888889,0,0,2.3888889,214.77778,131.11111)"
       id="arrow_x5F_full_x5F_lowerright">
      <polygon
         points="14,22 8,28 28,28 28,8 22,14 12,4 4,12 "
         id="polygon9" />
    </g>
    <g
       id="background-0"
       transform="matrix(2.3020833,0,0,2.3020833,191.3333,352.66667)">
      <rect
         style="fill:none"
         y="0"
         x="0"
         width="32"
         height="32"
         id="rect6-2" />
    </g>
    <g
       id="arrow_x5F_full_x5F_lowerleft"
       transform="matrix(2.3020833,0,0,2.3020833,225.3333,352.66667)">
      <polygon
         points="24,28 4,28 4,8 10,14 20,4 28,12 18,22 "
         id="polygon9-4" />
    </g>
    <g
       id="background-94"
       transform="matrix(3.65625,0,0,3.65625,321.3333,211)">
      <rect
         style="fill:none"
         y="0"
         x="0"
         width="32"
         height="32"
         id="rect6-8" />
    </g>
    <g
       id="server-8"
       transform="matrix(3.65625,0,0,3.65625,321.3333,211)">
      <path
         inkscape:connector-curvature="0"
         d="m 6,0 v 30 h 2 l 0,2 h 4 v -2 h 8 v 2 h 4 v -2 h 2 V 0 H 6 z m 6,6 H 8 V 4 h 4 v 2 z"
         id="path9-2" />
    </g>
    <text
       xml:space="preserve"
       style="font-size:31.0547123px;font-style:normal;font-weight:normal;line-height:125%;letter-spacing:0px;word-spacing:0px;fill:#000000;fill-opacity:1;stroke:none;font-family:Sans"
       x="317.94232"
       y="191.53154"
       id="text3094"
       sodipodi:linespacing="125%"><tspan
         sodipodi:role="line"
         x="317.94232"
         y="191.53154"
         id="tspan3096"><tspan
           x="317.94232"
           y="191.53154"
           id="tspan3098">Web App</tspan></tspan></text>
    <text
       xml:space="preserve"
       style="font-size:31.0547123px;font-style:normal;font-weight:normal;line-height:125%;letter-spacing:0px;word-spacing:0px;fill:#000000;fill-opacity:1;stroke:none;font-family:Sans"
       x="559.94232"
       y="191.53154"
       id="text3100"
       sodipodi:linespacing="125%"><tspan
         sodipodi:role="line"
         x="559.94232"
         y="191.53154"
         id="tspan3102"><tspan
           x="559.94232"
           y="191.53154"
           id="tspan3104">Koverse Server</tspan></tspan></text>
  </g>
</svg>
